<mxfile host="app.diagrams.net" modified="2023-04-27T02:46:48.963Z" agent="Mozilla/5.0 (Windows NT 10.0; Win64; x64) AppleWebKit/537.36 (KHTML, like Gecko) Chrome/112.0.0.0 Safari/537.36 Edg/112.0.1722.58" etag="EuPZ3mBG1S3iW2tMimIM" version="21.2.1" type="github">
  <diagram name="第 1 页" id="vUWacYTVMIes9-4tltfg">
    <mxGraphModel dx="993" dy="573" grid="0" gridSize="10" guides="1" tooltips="1" connect="1" arrows="1" fold="1" page="1" pageScale="1" pageWidth="827" pageHeight="1169" math="0" shadow="0">
      <root>
        <mxCell id="0" />
        <mxCell id="1" parent="0" />
        <mxCell id="i20Dg_ZKP4E4ahHi7g5D-1" value="用户" style="shape=umlLifeline;perimeter=lifelinePerimeter;whiteSpace=wrap;html=1;container=1;dropTarget=0;collapsible=0;recursiveResize=0;outlineConnect=0;portConstraint=eastwest;newEdgeStyle={&quot;edgeStyle&quot;:&quot;elbowEdgeStyle&quot;,&quot;elbow&quot;:&quot;vertical&quot;,&quot;curved&quot;:0,&quot;rounded&quot;:0};" vertex="1" parent="1">
          <mxGeometry x="80" y="100" width="100" height="300" as="geometry" />
        </mxCell>
        <mxCell id="i20Dg_ZKP4E4ahHi7g5D-3" value="" style="html=1;points=[];perimeter=orthogonalPerimeter;outlineConnect=0;targetShapes=umlLifeline;portConstraint=eastwest;newEdgeStyle={&quot;edgeStyle&quot;:&quot;elbowEdgeStyle&quot;,&quot;elbow&quot;:&quot;vertical&quot;,&quot;curved&quot;:0,&quot;rounded&quot;:0};" vertex="1" parent="i20Dg_ZKP4E4ahHi7g5D-1">
          <mxGeometry x="45" y="60" width="10" height="190" as="geometry" />
        </mxCell>
        <mxCell id="i20Dg_ZKP4E4ahHi7g5D-2" value="登录" style="shape=umlLifeline;perimeter=lifelinePerimeter;whiteSpace=wrap;html=1;container=1;dropTarget=0;collapsible=0;recursiveResize=0;outlineConnect=0;portConstraint=eastwest;newEdgeStyle={&quot;edgeStyle&quot;:&quot;elbowEdgeStyle&quot;,&quot;elbow&quot;:&quot;vertical&quot;,&quot;curved&quot;:0,&quot;rounded&quot;:0};" vertex="1" parent="1">
          <mxGeometry x="250" y="100" width="100" height="300" as="geometry" />
        </mxCell>
        <mxCell id="i20Dg_ZKP4E4ahHi7g5D-4" value="" style="html=1;points=[];perimeter=orthogonalPerimeter;outlineConnect=0;targetShapes=umlLifeline;portConstraint=eastwest;newEdgeStyle={&quot;edgeStyle&quot;:&quot;elbowEdgeStyle&quot;,&quot;elbow&quot;:&quot;vertical&quot;,&quot;curved&quot;:0,&quot;rounded&quot;:0};" vertex="1" parent="i20Dg_ZKP4E4ahHi7g5D-2">
          <mxGeometry x="45" y="60" width="10" height="180" as="geometry" />
        </mxCell>
        <mxCell id="i20Dg_ZKP4E4ahHi7g5D-14" value="" style="html=1;points=[];perimeter=orthogonalPerimeter;outlineConnect=0;targetShapes=umlLifeline;portConstraint=eastwest;newEdgeStyle={&quot;edgeStyle&quot;:&quot;elbowEdgeStyle&quot;,&quot;elbow&quot;:&quot;vertical&quot;,&quot;curved&quot;:0,&quot;rounded&quot;:0};" vertex="1" parent="i20Dg_ZKP4E4ahHi7g5D-2">
          <mxGeometry x="50" y="170" width="10" height="40" as="geometry" />
        </mxCell>
        <mxCell id="i20Dg_ZKP4E4ahHi7g5D-15" value="4.验证用户信息" style="html=1;align=left;spacingLeft=2;endArrow=block;rounded=0;edgeStyle=orthogonalEdgeStyle;curved=0;rounded=0;" edge="1" target="i20Dg_ZKP4E4ahHi7g5D-14" parent="i20Dg_ZKP4E4ahHi7g5D-2">
          <mxGeometry relative="1" as="geometry">
            <mxPoint x="55" y="150" as="sourcePoint" />
            <Array as="points">
              <mxPoint x="85" y="180" />
            </Array>
          </mxGeometry>
        </mxCell>
        <mxCell id="i20Dg_ZKP4E4ahHi7g5D-5" value="1.用户登录" style="edgeStyle=elbowEdgeStyle;rounded=0;orthogonalLoop=1;jettySize=auto;html=1;elbow=vertical;curved=0;" edge="1" parent="1" source="i20Dg_ZKP4E4ahHi7g5D-3" target="i20Dg_ZKP4E4ahHi7g5D-2">
          <mxGeometry relative="1" as="geometry">
            <Array as="points">
              <mxPoint x="200" y="170" />
            </Array>
          </mxGeometry>
        </mxCell>
        <mxCell id="i20Dg_ZKP4E4ahHi7g5D-6" value="数据库" style="shape=umlLifeline;perimeter=lifelinePerimeter;whiteSpace=wrap;html=1;container=1;dropTarget=0;collapsible=0;recursiveResize=0;outlineConnect=0;portConstraint=eastwest;newEdgeStyle={&quot;edgeStyle&quot;:&quot;elbowEdgeStyle&quot;,&quot;elbow&quot;:&quot;vertical&quot;,&quot;curved&quot;:0,&quot;rounded&quot;:0};" vertex="1" parent="1">
          <mxGeometry x="580" y="100" width="100" height="300" as="geometry" />
        </mxCell>
        <mxCell id="i20Dg_ZKP4E4ahHi7g5D-7" value="" style="html=1;points=[];perimeter=orthogonalPerimeter;outlineConnect=0;targetShapes=umlLifeline;portConstraint=eastwest;newEdgeStyle={&quot;edgeStyle&quot;:&quot;elbowEdgeStyle&quot;,&quot;elbow&quot;:&quot;vertical&quot;,&quot;curved&quot;:0,&quot;rounded&quot;:0};" vertex="1" parent="i20Dg_ZKP4E4ahHi7g5D-6">
          <mxGeometry x="45" y="60" width="10" height="80" as="geometry" />
        </mxCell>
        <mxCell id="i20Dg_ZKP4E4ahHi7g5D-8" style="edgeStyle=elbowEdgeStyle;rounded=0;orthogonalLoop=1;jettySize=auto;html=1;elbow=vertical;curved=0;" edge="1" parent="1" source="i20Dg_ZKP4E4ahHi7g5D-4" target="i20Dg_ZKP4E4ahHi7g5D-6">
          <mxGeometry relative="1" as="geometry">
            <Array as="points">
              <mxPoint x="430" y="180" />
              <mxPoint x="450" y="170" />
            </Array>
          </mxGeometry>
        </mxCell>
        <mxCell id="i20Dg_ZKP4E4ahHi7g5D-9" value="2.发起获取请求" style="edgeLabel;html=1;align=center;verticalAlign=middle;resizable=0;points=[];" vertex="1" connectable="0" parent="i20Dg_ZKP4E4ahHi7g5D-8">
          <mxGeometry x="-0.1495" y="-1" relative="1" as="geometry">
            <mxPoint as="offset" />
          </mxGeometry>
        </mxCell>
        <mxCell id="i20Dg_ZKP4E4ahHi7g5D-11" value="3.返回数据响应" style="html=1;verticalAlign=bottom;endArrow=open;dashed=1;endSize=8;edgeStyle=elbowEdgeStyle;elbow=vertical;curved=0;rounded=0;" edge="1" parent="1" source="i20Dg_ZKP4E4ahHi7g5D-6" target="i20Dg_ZKP4E4ahHi7g5D-2">
          <mxGeometry relative="1" as="geometry">
            <mxPoint x="570" y="220" as="sourcePoint" />
            <mxPoint x="490" y="220" as="targetPoint" />
            <Array as="points">
              <mxPoint x="460" y="230" />
            </Array>
          </mxGeometry>
        </mxCell>
        <mxCell id="i20Dg_ZKP4E4ahHi7g5D-16" value="5.返回" style="html=1;verticalAlign=bottom;endArrow=open;dashed=1;endSize=8;edgeStyle=elbowEdgeStyle;elbow=vertical;curved=0;rounded=0;" edge="1" parent="1" target="i20Dg_ZKP4E4ahHi7g5D-1">
          <mxGeometry relative="1" as="geometry">
            <mxPoint x="300" y="330" as="sourcePoint" />
            <mxPoint x="220" y="330" as="targetPoint" />
          </mxGeometry>
        </mxCell>
      </root>
    </mxGraphModel>
  </diagram>
</mxfile>
